<?xml version="1.0" standalone="no"?>
<!DOCTYPE svg PUBLIC "-//W3C//DTD SVG 20010904//EN"
 "http://www.w3.org/TR/2001/REC-SVG-20010904/DTD/svg10.dtd">
<svg version="1.0" xmlns="http://www.w3.org/2000/svg"
 width="1024.000000pt" height="559.000000pt" viewBox="0 0 1024.000000 559.000000"
 preserveAspectRatio="xMidYMid meet">

<g transform="translate(0.000000,559.000000) scale(0.100000,-0.100000)"
fill="#000000" stroke="none">
<path d="M5020 5057 c-154 -89 -266 -159 -282 -179 -10 -11 -18 -33 -18 -49
l0 -29 -40 20 c-43 22 -100 26 -132 9 -17 -9 -67 -103 -92 -174 -6 -16 -15 -6
-51 60 -56 102 -82 125 -140 125 -63 0 -105 -38 -111 -100 -4 -40 1 -55 45
-130 27 -47 45 -86 41 -88 -4 -1 -40 1 -81 6 -41 5 -88 5 -104 1 -41 -11 -65
-55 -65 -116 l0 -49 -52 0 c-49 0 -65 -7 -224 -102 -130 -78 -175 -110 -184
-131 -7 -19 -10 -93 -8 -230 l3 -202 33 -27 33 -27 -36 -20 c-49 -26 -85 -70
-85 -105 0 -18 19 -57 49 -102 l49 -73 -98 -5 c-79 -4 -104 -9 -127 -26 -61
-46 -67 -122 -13 -176 28 -27 31 -28 134 -28 58 0 106 -3 106 -6 0 -3 -22 -38
-50 -78 -56 -81 -63 -117 -29 -160 11 -15 39 -36 60 -47 l40 -20 -36 -34 -36
-33 3 -211 c3 -210 3 -211 28 -235 37 -37 350 -216 378 -216 13 0 32 5 43 10
18 10 19 7 19 -47 0 -105 48 -139 169 -121 39 6 74 8 77 5 3 -3 -15 -44 -41
-92 -41 -75 -47 -92 -42 -128 8 -59 52 -97 111 -97 58 0 76 17 136 120 l49 85
16 -40 c9 -22 25 -62 37 -88 35 -76 92 -96 168 -57 48 25 50 25 50 0 0 -47 25
-68 200 -173 98 -59 189 -107 202 -107 26 0 354 191 381 222 9 11 17 33 17 49
0 34 0 34 50 9 53 -27 102 -26 134 3 13 12 39 57 56 100 18 42 33 77 35 77 2
0 24 -38 50 -85 50 -92 78 -115 141 -115 28 0 44 8 70 34 55 55 45 117 -44
254 -8 12 -12 25 -9 29 4 3 39 1 78 -5 121 -18 169 16 169 121 0 53 2 58 18
51 47 -22 86 -8 257 94 93 56 175 112 182 124 9 16 12 83 13 226 l0 204 -31
31 -32 31 24 15 c54 35 89 78 89 111 0 37 -10 57 -62 126 -21 28 -38 54 -38
57 0 4 47 7 105 7 102 0 106 1 137 29 29 26 33 35 33 80 0 44 -4 55 -33 83
-32 32 -34 33 -137 36 -58 2 -105 5 -105 7 0 2 23 34 50 70 71 94 66 156 -19
203 -23 13 -41 25 -41 27 0 2 14 17 30 33 l30 30 0 201 c0 130 -4 209 -12 225
-14 32 -355 236 -393 236 -15 0 -35 -5 -46 -10 -18 -10 -19 -7 -19 49 0 52 -4
65 -28 92 -25 28 -34 32 -78 31 -27 -1 -70 -4 -96 -7 -27 -4 -48 -4 -48 0 0 4
21 45 46 92 40 72 46 90 41 125 -8 61 -48 98 -108 98 -62 0 -88 -22 -141 -121
l-43 -81 -41 90 c-23 50 -51 95 -62 101 -32 17 -94 13 -130 -9 -41 -25 -42
-25 -42 8 0 44 -21 64 -147 139 -191 113 -229 133 -254 133 -13 0 -58 -20 -99
-43z m232 -99 c206 -120 198 -113 198 -157 0 -21 -6 -43 -12 -49 -29 -23 -308
-182 -320 -182 -7 1 -83 42 -168 93 l-155 93 0 44 0 44 155 93 c85 51 160 92
167 93 7 0 67 -32 135 -72z m-955 -200 c13 -12 23 -25 23 -28 0 -4 23 -48 51
-99 51 -91 74 -116 97 -102 7 4 33 57 58 117 54 129 63 139 109 117 l34 -16
-19 -46 c-10 -25 -44 -107 -74 -181 -31 -74 -56 -138 -56 -142 0 -4 25 -52 55
-106 30 -54 55 -103 55 -109 0 -9 -70 -47 -75 -41 -1 2 -28 49 -60 106 -31 56
-60 102 -63 102 -14 0 -330 41 -349 45 -18 4 -23 12 -23 39 0 55 13 59 146 42
117 -14 144 -11 144 17 0 5 -29 63 -65 127 -36 64 -65 123 -65 130 0 16 29 50
43 50 6 0 21 -10 34 -22z m1417 -111 c46 -111 61 -132 89 -122 6 3 39 55 72
116 73 134 85 147 120 129 15 -8 25 -22 25 -36 0 -13 -29 -74 -65 -136 -36
-62 -65 -118 -65 -125 0 -16 34 -34 52 -28 27 9 207 25 222 19 11 -4 16 -19
16 -50 0 -42 -1 -44 -29 -44 -67 0 -346 -42 -353 -53 -5 -7 -29 -48 -53 -92
-65 -117 -58 -109 -93 -91 -17 9 -34 21 -37 26 -4 6 19 55 49 110 31 55 56
104 56 109 0 5 -31 84 -70 177 -38 93 -70 174 -70 181 0 18 52 43 70 33 8 -4
37 -60 64 -123z m-940 -305 c57 -38 80 -38 84 -1 2 21 -4 31 -32 47 l-36 21 0
131 c0 71 3 130 8 130 4 0 70 -38 147 -83 l140 -83 3 -112 3 -112 -30 0 c-49
0 -191 -29 -279 -57 -96 -31 -77 -42 -148 87 l-41 75 61 145 61 146 5 -151 5
-150 49 -33z m814 187 l59 -146 -48 -89 c-26 -49 -52 -90 -57 -92 -5 -1 -44 9
-86 22 -86 28 -221 56 -272 56 l-35 0 3 112 3 111 140 83 c77 46 143 84 148
84 4 0 7 -59 7 -130 l0 -131 -35 -20 c-24 -14 -35 -28 -35 -44 0 -32 25 -38
70 -15 70 36 70 35 70 202 0 83 2 149 4 147 2 -2 31 -70 64 -150z m-1628 -244
l30 -16 0 -194 c0 -191 0 -195 -22 -208 -13 -8 -86 -51 -163 -97 l-140 -82
-35 20 -35 20 -3 189 -2 190 162 96 c90 53 167 97 171 97 4 0 21 -7 37 -15z
m320 -5 c52 -6 100 -12 106 -15 6 -2 34 -45 63 -96 l51 -92 -85 -80 c-67 -62
-138 -147 -180 -215 -1 -1 -41 20 -89 48 l-86 51 0 170 c0 93 3 169 8 168 4 0
52 -26 107 -58 l100 -57 5 -45 c4 -39 8 -44 32 -47 32 -4 41 19 36 84 -3 37
-8 42 -80 89 -42 28 -103 65 -135 83 l-58 33 55 -5 c30 -3 98 -10 150 -16z
m1765 -51 c-154 -91 -155 -92 -155 -149 0 -51 16 -74 47 -68 13 2 19 15 23 48
l5 44 100 57 c55 32 103 58 108 58 4 1 6 -76 5 -171 l-3 -172 -50 -29 c-27
-16 -65 -38 -82 -48 l-33 -18 -39 57 c-44 63 -136 162 -194 209 l-38 30 53 94
53 94 63 8 c34 4 90 11 125 16 143 20 143 17 12 -60z m375 15 c52 -31 125 -74
163 -96 l67 -41 -2 -189 -3 -190 -35 -20 -35 -20 -162 97 -163 97 0 194 0 193
28 15 c15 8 32 15 37 16 6 0 53 -25 105 -56z m-1055 -64 c485 -131 805 -625
720 -1111 -67 -383 -325 -677 -700 -795 -84 -27 -101 -29 -260 -29 -147 0
-181 3 -249 23 -383 110 -658 418 -721 807 -19 115 -19 190 0 301 65 380 319
676 674 788 124 39 172 45 321 41 97 -2 157 -9 215 -25z m-1251 -411 l85 -51
-19 -32 c-30 -54 -67 -167 -85 -259 l-18 -87 -106 0 -106 0 -92 125 c-51 69
-89 125 -85 125 5 0 62 -32 127 -71 126 -74 133 -76 193 -39 34 21 41 50 17
70 -12 10 -20 9 -40 -4 -13 -9 -31 -16 -39 -16 -15 0 -206 111 -206 120 0 3
30 22 68 42 37 20 99 57 137 82 39 24 73 45 77 45 3 1 45 -22 92 -50z m2249
-34 c75 -44 137 -82 137 -85 0 -9 -191 -120 -206 -120 -8 0 -26 7 -39 16 -21
13 -28 14 -41 4 -26 -22 -12 -51 37 -78 l46 -26 127 73 c70 40 129 71 131 69
1 -2 -38 -58 -88 -125 l-90 -123 -107 0 -107 0 -13 73 c-13 73 -57 209 -85
263 -8 16 -15 34 -14 39 0 12 149 104 164 102 6 -1 72 -38 148 -82z m-2643
-315 l112 -150 119 0 119 0 0 -45 0 -45 -114 0 -114 0 -28 -33 c-16 -18 -67
-87 -114 -154 -47 -67 -89 -123 -93 -123 -16 0 -67 41 -67 55 0 7 32 56 70
108 104 141 101 147 -90 147 -140 0 -160 5 -160 41 0 41 25 49 160 49 71 0
135 3 144 6 29 11 17 40 -54 135 -70 93 -76 105 -62 125 7 11 42 33 54 34 4 0
57 -67 118 -150z m2943 139 c53 -28 50 -41 -33 -151 -100 -132 -100 -132 80
-138 80 -3 151 -9 158 -13 15 -10 16 -49 0 -65 -8 -8 -56 -12 -148 -12 -191 0
-194 -6 -90 -147 39 -52 70 -103 70 -114 0 -15 -44 -49 -64 -49 -2 0 -50 63
-105 139 -55 76 -108 146 -116 155 -13 13 -39 16 -131 16 l-114 0 0 45 0 45
120 0 121 0 111 150 c61 83 113 150 115 150 2 0 14 -5 26 -11z m-2562 -566
c15 -61 43 -148 62 -192 l35 -81 -82 -46 c-44 -26 -85 -47 -91 -47 -8 0 -266
146 -285 161 -7 5 31 32 124 85 83 47 83 48 113 31 37 -21 66 -13 61 18 -3 26
-61 68 -92 68 -12 0 -73 -31 -136 -69 -63 -38 -117 -67 -119 -65 -3 3 94 142
152 217 l29 38 101 -3 100 -3 28 -112z m2363 -10 c52 -71 93 -130 91 -132 -2
-2 -16 6 -32 16 -57 40 -211 123 -227 123 -9 0 -34 -11 -56 -25 -67 -42 -45
-95 25 -62 33 16 33 16 136 -44 56 -33 104 -61 106 -63 4 -3 -265 -162 -284
-168 -6 -2 -48 19 -95 46 l-85 49 29 65 c32 70 59 155 78 242 6 30 13 61 15
68 3 8 33 12 105 12 l100 0 94 -127z m-2732 -271 c35 -21 107 -63 160 -92 l98
-55 0 -196 0 -196 -33 -17 -32 -18 -120 70 c-66 39 -140 83 -165 99 l-45 28
-3 186 -2 187 32 21 c18 11 36 21 40 21 4 0 36 -17 70 -38z m2884 17 l34 -21
0 -187 0 -188 -166 -97 -166 -98 -34 18 -34 19 0 195 0 195 103 57 c56 32 127
73 157 92 30 19 59 35 64 35 5 1 24 -8 42 -20z m-2338 -126 c45 -63 101 -123
176 -191 l47 -44 -52 -91 c-29 -51 -53 -93 -53 -94 -2 -4 -310 -43 -313 -39
-2 2 49 34 114 70 65 37 126 77 136 88 22 27 23 110 1 129 -25 21 -48 -1 -52
-49 -3 -40 -4 -41 -107 -101 -58 -34 -107 -61 -110 -61 -3 0 -4 77 -3 172 l3
172 80 48 c44 26 82 48 85 48 3 0 24 -26 48 -57z m1818 10 l84 -48 0 -173 c0
-96 -4 -172 -8 -170 -5 2 -54 30 -110 63 l-102 60 0 43 c0 73 -62 70 -68 -3
-6 -73 0 -80 139 -161 71 -42 128 -78 126 -80 -3 -4 -311 35 -313 39 0 1 -24
44 -52 95 l-51 93 37 31 c62 52 156 153 192 207 19 28 37 51 39 51 2 0 41 -21
87 -47z m-1468 -348 c-6 -11 -33 -59 -60 -108 l-48 -87 71 -180 c39 -99 69
-187 65 -195 -6 -16 -49 -30 -69 -22 -7 2 -34 59 -62 126 -63 156 -73 159
-141 34 -77 -142 -92 -163 -117 -163 -27 0 -47 17 -47 40 0 8 29 69 65 135 36
66 65 126 65 133 0 22 -27 24 -142 10 -133 -17 -148 -13 -148 41 l0 38 173 23
c94 12 182 27 194 31 12 4 30 23 39 41 9 18 34 63 56 101 l39 67 39 -22 c33
-20 37 -25 28 -43z m1111 -36 c33 -62 61 -104 75 -109 11 -4 99 -18 194 -31
l173 -23 -3 -40 -3 -41 -65 0 c-36 0 -97 4 -136 8 -99 12 -100 3 -19 -143 67
-121 75 -149 51 -170 -36 -29 -59 -9 -128 115 -84 150 -97 154 -141 50 -74
-173 -75 -175 -99 -175 -24 1 -58 21 -58 36 0 4 32 88 71 185 l72 178 -35 63
c-19 35 -45 80 -57 101 -11 21 -21 42 -21 46 0 8 58 50 70 51 3 0 30 -45 59
-101z m-961 -3 c77 -26 202 -54 267 -58 l40 -3 3 -111 3 -112 -143 -83 c-78
-46 -146 -85 -150 -87 -4 -2 -8 57 -8 131 l0 134 35 19 c37 20 48 36 39 58 -9
24 -30 25 -70 4 -75 -39 -73 -35 -76 -202 l-3 -151 -60 149 -59 149 33 61 c39
71 72 126 75 126 1 0 35 -11 74 -24z m818 -70 l51 -94 -61 -151 -61 -152 -3
153 c-1 89 -7 157 -13 164 -6 8 -31 25 -56 39 -35 19 -49 22 -59 14 -24 -20
-16 -49 21 -70 l35 -21 0 -134 c0 -74 -2 -134 -4 -134 -6 0 -268 160 -284 172
-9 8 -12 40 -10 117 l3 106 40 3 c70 5 188 30 260 56 39 13 75 25 80 25 6 0
33 -42 61 -93z m-300 -378 l154 -91 0 -43 0 -42 -157 -93 c-87 -50 -162 -94
-166 -97 -8 -4 -286 158 -319 186 -11 9 -18 29 -18 51 0 36 1 36 163 133 89
53 168 95 175 93 7 -3 83 -46 168 -97z"/>
<path d="M4975 4066 c-266 -51 -491 -219 -608 -452 -125 -251 -127 -522 -6
-767 88 -179 230 -317 414 -403 120 -56 183 -68 345 -68 170 0 228 12 366 79
528 255 647 957 233 1373 -107 108 -250 191 -389 226 -90 23 -268 29 -355 12z
m300 -71 c385 -80 647 -430 621 -829 -26 -406 -367 -725 -774 -726 -126 0
-207 18 -327 74 -211 99 -358 273 -431 511 -14 47 -18 92 -18 205 0 135 2 151
31 233 56 160 155 298 287 397 66 50 203 113 281 130 33 7 65 14 70 15 29 9
199 3 260 -10z"/>
<path d="M5323 3714 c-69 -45 -103 -129 -83 -203 29 -108 159 -172 253 -125
76 39 107 88 107 170 0 108 -64 175 -174 182 -53 3 -66 0 -103 -24z m170 -65
c57 -44 57 -127 0 -181 -38 -36 -112 -33 -152 6 -54 51 -50 131 7 176 34 28
110 27 145 -1z"/>
<path d="M4746 3574 c-110 -35 -194 -118 -226 -222 -24 -77 -25 -137 -4 -240
69 -342 402 -570 729 -498 179 39 279 152 279 316 -1 61 -6 86 -28 132 -43 92
-129 155 -233 173 -52 8 -66 24 -93 105 -28 84 -52 122 -104 164 -89 74 -220
102 -320 70z m216 -84 c85 -43 113 -81 154 -206 27 -85 28 -86 14 -136 -16
-58 -52 -93 -115 -113 -51 -16 -56 -20 -53 -44 3 -24 6 -26 46 -24 64 3 126
43 162 106 16 29 30 65 30 81 0 22 4 27 17 22 9 -4 36 -11 60 -16 151 -34 224
-198 153 -344 -42 -88 -163 -146 -304 -146 -150 0 -272 54 -386 169 -112 113
-169 248 -170 397 0 72 13 115 52 169 76 107 226 144 340 85z"/>
<path d="M3160 1051 c-45 -14 -94 -43 -128 -75 -54 -50 -75 -100 -80 -194 -4
-77 -2 -87 27 -147 52 -106 136 -155 264 -155 78 0 154 27 191 69 19 21 19 22
-2 42 l-22 20 -28 -21 c-115 -91 -278 -54 -338 75 -43 91 -28 194 39 263 48
50 83 65 158 66 58 0 74 -4 117 -31 l50 -31 22 23 21 23 -35 27 c-62 47 -181
69 -256 46z"/>
<path d="M4789 1046 c-92 -33 -146 -84 -178 -171 -56 -149 9 -311 149 -374 61
-28 187 -29 246 -2 59 27 118 84 145 139 35 72 33 187 -5 265 -59 123 -226
190 -357 143z m206 -79 c82 -45 126 -153 104 -251 -32 -145 -183 -217 -317
-150 -94 47 -139 153 -111 266 16 69 86 142 150 156 58 14 125 5 174 -21z"/>
<path d="M3560 765 l0 -285 35 0 34 0 3 93 3 92 92 1 93 1 60 -94 c60 -92 62
-93 101 -93 l39 0 -37 58 c-21 31 -50 75 -65 96 -30 42 -34 56 -17 56 24 0 72
45 90 84 36 80 14 190 -47 233 -51 36 -93 43 -240 43 l-144 0 0 -285z m327
199 c15 -11 35 -40 43 -62 13 -37 13 -47 0 -84 -25 -69 -53 -82 -186 -86
l-114 -4 0 132 0 132 114 -4 c97 -2 119 -6 143 -24z"/>
<path d="M4060 1045 c0 -3 47 -83 105 -179 l105 -175 0 -105 0 -106 40 0 40 0
0 105 0 104 105 173 c58 95 105 176 105 180 0 4 -15 8 -34 8 -34 0 -37 -4
-122 -145 -47 -80 -89 -145 -93 -145 -6 1 -31 40 -122 198 -52 91 -54 92 -91
92 -21 0 -38 -2 -38 -5z"/>
<path d="M5300 765 l0 -285 35 0 35 0 0 120 0 120 145 0 145 0 0 30 0 29 -142
3 -143 3 -3 103 -3 102 161 0 160 0 0 30 0 30 -195 0 -195 0 0 -285z"/>
<path d="M5810 765 l0 -285 200 0 200 0 0 30 0 30 -165 0 -165 0 0 100 0 100
140 0 140 0 0 33 c0 29 -3 33 -27 33 -16 1 -79 1 -140 2 l-113 2 0 90 0 90
158 0 158 0 2 30 2 30 -195 0 -195 0 0 -285z"/>
<path d="M6340 765 l0 -285 35 0 34 0 3 93 3 92 88 1 88 2 62 -94 c60 -90 63
-94 100 -94 20 0 37 2 37 5 0 3 -27 46 -60 95 -33 49 -60 93 -60 97 1 4 15 17
32 28 66 42 92 113 76 205 -10 52 -46 94 -103 121 -33 15 -65 19 -187 19
l-148 0 0 -285z m336 183 c29 -32 34 -45 34 -87 0 -34 -6 -56 -21 -75 -36 -46
-69 -56 -179 -56 l-100 0 0 131 0 131 116 -4 116 -3 34 -37z"/>
<path d="M6840 1020 l0 -30 95 0 95 0 0 -255 0 -255 35 0 35 0 1 238 c1 130 1
245 0 255 -2 15 9 17 98 17 l101 0 0 30 0 30 -230 0 -230 0 0 -30z"/>
</g>
</svg>
